<svg xmlns="http://www.w3.org/2000/svg" width="3840" height="2160" id="discourse-vincent-theme"><path fill="#403d3e" d="M0 1080.000011V0h3840.332936v2160.000022H0z"/><path fill="#3c393a" d="M0 1080.000011V0h3840.332936v2160.000022l-1014.356418-.039647c-802.30114-.031718-1014.582255-.312582-1015.436456-1.342943-1.567591-1.890397-91.141926-343.516761-90.728243-346.027246.191313-1.160881 53.161827-66.541005 117.712286-145.289023 71.385418-87.086428 117.156137-143.749477 116.832608-144.636108-.292472-.801721-65.996238-101.844477-146.008535-224.539345-80.012298-122.694884-150.452005-230.904859-156.532566-240.46668-26.282712-41.329777-132.93698-203.862135-134.421353-204.84706-1.306326-.866775-2.39556-.163618-5.46667 3.528888-2.10957 2.536256-58.824198 71.738628-126.032447 153.783073-214.67993 262.069774-233.501281 284.96947-234.56282 285.389844-.572884.226785-33.58427-3.787977-73.358808-8.921767-39.774432-5.133775-72.537262-9.102656-72.806215-8.81973-.26903.282925 4.911018 8.84723 11.511048 19.031677 26.46483 40.837227 102.770462 157.055378 107.48088 163.699884 13.206379 18.62897 454.496987 696.03273 454.477087 697.64591-.021107 1.76067-38.287346 1.850273-789.329464 1.850273H0z"/><path fill="#393738" d="M33.664374 2158.673731c-2.479107-1.312176-30.822781-44.614943-31.44548-48.041445-.246833-1.358326-.847061-2.728705-1.33384-3.045093C.37598 2107.256215 0 1659.4714 0 1053.505898V0h3840.332936v2160.000022H1811.368785l-.058797-2.378854c-.03166-1.30837-20.244515-79.118327-44.915764-172.910857-24.671401-93.792847-44.714653-171.188248-44.540828-171.99008.173976-.801992 52.912924-65.604213 117.197596-144.005394 89.965403-109.721024 116.792958-143.066016 116.498074-144.799297-.210761-1.23859-13.459307-22.299495-29.441112-46.802015-15.981806-24.502615-81.974275-125.678697-146.649864-224.835909-64.67559-99.157211-130.70801-200.495975-146.738662-225.19732-57.517856-88.627862-113.64496-173.857165-117.59198-178.564078-2.211182-2.636754-71.908266-108.852836-154.88248-236.035747-82.974197-127.182894-151.580977-231.718601-152.45951-232.301547-1.266978-.84072-28.059648 17.553759-129.549472 88.94214-70.373178 49.501126-191.496521 134.693557-269.162512 189.316516-89.624794 63.033654-141.210888 99.933623-141.210888 101.009356 0 .932194 75.54338 117.446798 167.874176 258.921344 92.330796 141.474546 168.313292 258.50563 168.850024 260.069125.815938 2.377063 77.612652 120.26685 128.61843 197.440924 37.043585 56.048559 444.457647 680.653957 445.02827 682.27142.621277 1.761304-36.48231 1.844088-770.95041 1.720388-516.691612-.087225-772.268773-.482115-773.61825-1.196406z"/><path fill="#2e2c2c" d="M32.871068 2156.563846c-4.233303-6.039912-30.485006-46.69549-31.701823-49.096071-.890332-1.756546-1.095235-192.15817-.852778-792.422858C.491995 880.483854.986023 523.506613 1.41431 521.76212c.428286-1.744494 42.46009-112.59912 93.404008-246.34361C166.185194 88.05704 187.8283 32.246696 189.119716 32.246696c1.099862 0 57.560355 85.601562 164.22504 248.986782 89.401912 136.942732 196.108645 300.38692 237.12607 363.2093 41.017424 62.82238 75.079796 115.210532 75.694154 116.418102.614372 1.207586 76.267535 117.278819 168.11815 257.936086 91.850613 140.657314 167.50159 256.929925 168.113294 258.383659 1.203615 2.860445 112.313624 173.604482 115.241272 177.092518 2.337367 2.784957 460.30603 704.31828 460.30603 705.113928 0 .337163-347.099536.612951-771.332206.612951H35.279385zm2338.996879 2.081022c-1.904388-1.551965-412.977309-631.030891-415.23402-635.851085-.868823-1.855507-66.876368-103.4326-146.683784-225.726885-79.807417-122.29427-147.323305-225.921507-150.035308-230.28274-12.106395-19.468325-139.78626-214.428436-142.289764-217.268725-1.53759-1.744494-71.296485-108.1028-155.01967-236.35177-83.723168-128.24897-154.240365-236.011086-156.704882-239.471368C1198.558558 363.384035 964.230575 3.86156 963.542858 1.85022 962.940546.088657 1031.84931 0 2401.621582 0h1438.711354v2160.000022l-733.442292-.033304c-574.966443-.02696-733.78376-.311947-735.022697-1.321691z"/><path fill="#2a2828" d="M35.177088 2159.031511c0-1.124722-30.44552-48.183542-33.276415-51.434485C.071043 2105.496022 0 2102.383846 0 2024.337113v-81.077234h2.829049c1.555976 0 133.466237 16.871472 293.133926 37.492018 159.667674 20.620705 290.685583 37.244617 291.150886 36.942027.465317-.302432.846029-42.536776.846029-93.853746 0-73.062873.272542-93.659948 1.256335-94.945164.690973-.902696 67.967154-48.519753 149.502615-105.815736 81.535475-57.295983 200.026688-140.614305 263.313818-185.151856 108.153416-76.111518 115.166224-80.867007 116.709197-79.14397.902835 1.008316 103.949291 158.574291 228.99208 350.146787 125.04279 191.572495 228.107006 348.918506 229.03146 349.658012 1.360449 1.088247-145.408078 1.351031-769.953758 1.37815-466.651927.020617-771.63455-.349216-771.63455-.93489zm2130.567493-317.00506c-114.186638-174.885465-207.954182-319.121449-208.372387-320.524338-.418205-1.403001-64.626593-100.363355-142.685356-219.911902-163.422551-250.285055-149.899322-229.32105-148.71496-230.541148 1.969062-2.02826 658.322423-463.479785 659.828958-463.8951.925358-.255062 52.089328 35.051614 121.279846 83.69142 65.82377 46.272942 120.131817 84.132604 120.68465 84.132604.90968 0 38.655198-45.870566 231.710325-281.586992 33.654976-41.091923 61.778757-74.712577 62.497274-74.712577.718517 0 1.543168.8326 1.832324 1.850226.566703 1.99478 105.148639 397.996783 151.96472 575.418503 15.727626 59.60352 29.279197 110.328107 30.114703 112.721345 1.766895 5.060617-39.2219-24.105838 400.967399 285.316862 153.673572 108.021997 280.025553 197.013887 280.782061 197.759896 1.145768 1.129956.558562 1.984916-3.517809 5.121832-2.691198 2.071031-107.885366 75.980142-233.764868 164.24231-159.166927 111.602063-228.881183 161.046557-228.902289 162.348108-.016583 1.02941 13.57328 53.362467 30.200335 116.295702 16.626903 62.933075 30.388481 115.733974 30.581 117.33526l.350364 2.91156h-949.22433zM498.509585 1213.8643c-272.79832-35.281587-496.562282-64.518979-497.25326-64.971818C.255897 1148.236775 0 1084.871477 0 837.801191v-310.26789l93.631947-246.057402c51.497572-135.331566 94.179437-246.692735 94.848596-247.469261.996094-1.155926 1.577828-.868436 3.209115 1.585903 1.095852 1.648773 76.989128 117.896447 168.65173 258.328162 91.662588 140.43172 197.266233 302.207966 234.674744 359.502775 37.408542 57.294794 68.561673 105.24589 69.229204 106.557955.66753 1.312081 74.592845 114.769318 164.278485 252.127192 184.32745 282.306437 171.366944 262.390872 172.144469 264.522326.45692 1.252657-.157785 1.582096-2.78779 1.494348-1.855692-.062008-226.572595-28.979413-499.370915-64.261zm3340.818241-41.896293c0-.880065-.46494-2.426321-1.033302-3.436113-.56836-1.009697-16.423378-60.11778-35.233723-131.351267-128.734274-487.510213-131.665932-498.47594-133.895808-500.830371-1.212705-1.28049-141.053842-100.026747-310.758217-219.4361C3188.70255 197.504789 3049.853558 99.142683 3049.853558 98.33169c0-.810993 30.944933-23.267394 68.766585-49.90311L3187.386878 0h652.946058v586.784147c0 322.73128-.226138 586.784147-.50248 586.784147-.276491 0-.50263-.720111-.50263-1.600287zm-2473.024111-555.30968c-83.428993-127.780653-153.243443-234.472284-155.143216-237.092513-1.899654-2.62023-57.024664-86.834539-122.499788-187.14291C1023.185496 92.114538 968.092929 7.784141 966.232714 5.022027L962.850497 0h626.200546c562.431139 0 626.112473.165122 625.337723 1.621463-2.01625 3.789805-694.09888 847.365325-695.192033 847.365325-.662133 0-69.46401-104.547808-152.893018-232.328461z"/><path fill="#252223" d="M36.056515 2159.47144c-.069093-.290854-.182167-.95947-.251264-1.48599-.250527-1.908952-33.15803-51.79179-33.864024-51.33267-.399046.259295-.999068-.278168-1.333382-1.194661C.27353 2104.541625 0 2067.901079 0 2024.034364v-79.757445l2.261384.536828c7.208613 1.71103 578.392456 74.813868 584.190916 74.767402 9.117706-.072952 422.58789 53.258115 423.940997 54.681621.96828 1.018467 22.707223 81.590909 22.775863 84.41572.026082 1.055576-100.322648 1.321532-498.477427 1.321532-274.180267 0-498.56612-.237885-498.635218-.528581zm2333.7988-5.598554c-1.976149-3.317234-95.028794-146.05216-206.78384-317.188391-111.755047-171.136231-203.624989-312.00983-204.155359-313.052404-.67947-1.335647-.51846-2.56515.545597-4.162995 4.282459-6.43201 606.995032-741.107046 609.464162-742.905206 1.596838-1.163006 39.909512-47.312786 85.138855-102.555072 45.229344-55.242287 110.191526-134.57709 144.360137-176.299567 34.168763-41.722462 62.543406-75.859026 63.054931-75.859026.511525 0 .930032.256551.930032.5701 0 .509154 78.294852 297.138801 153.195215 580.399063 15.222432 57.568283 28.56882 106.572689 29.658808 108.898685 1.089987 2.325997 12.600885 44.431724 25.579874 93.568283 12.978838 49.13656 60.715454 229.799373 106.081385 401.472797 45.36578 171.673535 82.48987 313.691157 82.49786 315.594717.015076 2.865251 59.52898 229.970223 61.794586 235.79588.684747 1.760669-22.249157 1.847893-473.524817 1.802537l-474.244388-.047578-3.593038-6.031506zM501.524764 1212.0921c-271.139972-35.09234-494.903934-63.902491-497.25326-64.022702L0 1147.850972V837.42067c0-257.186825.230201-310.788035 1.342162-312.515813.73819-1.147004 43.072296-111.871587 94.075793-246.05461 51.003497-134.183034 93.088292-244.19972 93.52177-244.481537.781866-.50833 472.46305 721.054395 475.459355 727.342485.85925 1.803203 76.502554 118.048204 168.096229 258.32222 91.59369 140.273986 166.53399 255.279017 166.53399 255.56681 0 .287683-1.017623.472076-2.261385.409687-1.243761-.062326-224.103179-28.825375-495.24315-63.91781zm3337.307819-45.131742c-1.187377-7.93976-164.513443-624.956327-166.549744-629.19516C3670.6162 534.296145 3529.7695 3.793307 3529.7695.985252 3529.7695.38068 3589.766888 0 3685.051218 0h155.281718v585.726873c0 322.149794-.186338 585.726889-.414135 585.726889-.227947 0-.716708-2.022027-1.086218-4.493403zM1365.865519 614.055083c-83.607296-128.10034-153.24899-234.337023-154.759294-236.081516-1.510393-1.744494-57.380861-86.90749-124.156628-189.251098-66.775662-102.343613-121.789985-186.237887-122.2539-186.43172-.463916-.193833-.843497-.788546-.843497-1.321586C963.8522.38283 1210.824517 0 1589.080894 0h625.228874l-3.348206 3.720539c-1.84137 2.046296-158.026737 192.43999-347.07846 423.097099-189.051724 230.657109-344.242082 419.549951-344.86743 419.76186-.625349.211908-69.542858-104.424091-153.150153-232.524415z"/><path fill="#211e1f" d="M587.95989 2090.811352c0-38.053745.38745-69.44067.861-69.748494 1.197794-.778837 419.554755 53.283172 420.621028 54.35445.625544.628493 22.693835 82.431278 22.746902 84.318344 0 .145903-99.945736.26437-222.110734.26437H587.95989zm1784.985983 67.57327c0-.888424-93.205816-144.356989-207.124103-318.8187-181.016724-277.220778-206.955555-317.420361-205.785967-318.924431 9.259916-11.90896 607.407357-741.259784 608.676446-742.189425 1.516334-1.110703 33.489292 21.039764 237.325945 164.416284 129.565408 91.134936 236.398627 166.884361 237.407054 168.332084 1.598497 2.294596 213.226976 800.342335 214.668684 809.51171l.527505 3.355453-168.22543 117.966133-168.225429 117.966292h-274.622352c-245.66578 0-274.622353-.170326-274.622353-1.6154zM94.52713 1031.361012c-49.973484-35.183165-91.685786-64.754707-92.694005-65.714527-1.76327-1.678631-1.830433-10.0486-1.762484-219.642949C.109493 626.159758.52998 527.15419 1.00506 525.9912c.475077-1.163006.916585-1.638777.981127-1.057274.064542.581503 42.112677-109.321582 93.440298-244.229077C146.754106 145.797358 189.134053 35.626046 189.60412 35.87971c.470082.253665 80.852794 123.002564 178.62825 272.775332 97.775455 149.772768 204.159684 312.723534 236.40936 362.112823 43.719387 66.95472 58.367715 90.138498 57.581974 91.134445-2.190678 2.776726-473.22078 333.428102-474.9857 333.428102-1.017488 0-42.73739-28.786266-92.710873-63.9694zm3662.385904-433.458607c-64.125018-45.091031-82.295542-58.34907-83.676645-61.054494-.970435-1.900705-33.2128-122.63646-71.65-268.301659-38.43705-145.665195-70.12432-265.678412-70.41649-266.696033C3530.666063.093695 3538.480502 0 3685.486006 0h154.84693v327.753313c0 180.264308-.339208 327.75206-.753795 327.750521-.414587-.001063-37.614358-25.922173-82.666107-57.601428zM1088.479604 189.61059C1021.86928 87.495026 966.49315 3.058092 965.42154 1.972962 963.51958.046987 969.457388 0 1214.745456 0h251.272248l6.070355 3.964758c19.45986 12.709794 133.052582 93.641965 132.75408 94.584128-.527054 1.663276-391.93745 276.78642-393.730486 276.75394-.880523-.016017-52.582702-78.304552-122.63205-185.692236z"/></svg>
